<svg width="20" height="12" viewBox="0 0 20 12" fill="none" xmlns="http://www.w3.org/2000/svg">
<path fill-rule="evenodd" clip-rule="evenodd" d="M0.625 1.625C0.625 1.625 0.625 1.10723 0.991117 0.741117C0.991117 0.741117 1.35723 0.375 1.875 0.375H18.125C18.125 0.375 18.6428 0.375 19.0089 0.741117C19.0089 0.741117 19.375 1.10723 19.375 1.625V10.375C19.375 10.375 19.375 10.8928 19.0089 11.2589C19.0089 11.2589 18.6428 11.625 18.125 11.625H1.875C1.875 11.625 1.35723 11.625 0.991116 11.2589C0.991116 11.2589 0.625 10.8928 0.625 10.375V1.625ZM1.875 1.625V10.375L18.125 10.375V1.625H1.875Z" fill="black"/>
<path fill-rule="evenodd" clip-rule="evenodd" d="M10 2.875C10 2.875 11.2944 2.875 12.2097 3.79029C12.2097 3.79029 13.125 4.70558 13.125 6C13.125 6 13.125 7.29442 12.2097 8.20971C12.2097 8.20971 11.2944 9.125 10 9.125C10 9.125 8.70558 9.125 7.79029 8.20971C7.79029 8.20971 6.875 7.29442 6.875 6C6.875 6 6.875 4.70558 7.79029 3.79029C7.79029 3.79029 8.70558 2.875 10 2.875ZM10 4.125C10 4.125 9.22335 4.125 8.67418 4.67417C8.67418 4.67417 8.125 5.22335 8.125 6C8.125 6 8.125 6.77665 8.67418 7.32583C8.67418 7.32583 9.22335 7.875 10 7.875C10 7.875 10.7767 7.875 11.3258 7.32583C11.3258 7.32583 11.875 6.77665 11.875 6C11.875 6 11.875 5.22335 11.3258 4.67417C11.3258 4.67417 10.7767 4.125 10 4.125Z" fill="black"/>
<path d="M13.3384 1.47036L18.3384 5.84536C18.4524 5.94505 18.5986 6 18.75 6C18.7639 6 18.7777 5.99954 18.7916 5.99862C18.957 5.98759 19.1112 5.91131 19.2204 5.78657C19.3201 5.67263 19.375 5.52639 19.375 5.375C19.375 5.36113 19.3745 5.34726 19.3736 5.33343C19.3626 5.16803 19.2863 5.01379 19.1616 4.90464L14.1616 0.52964C14.0476 0.429949 13.9014 0.375 13.75 0.375C13.7361 0.375 13.7223 0.375462 13.7084 0.376384C13.543 0.387411 13.3888 0.463687 13.2796 0.588435C13.1799 0.702367 13.125 0.848611 13.125 1C13.125 1.01387 13.1255 1.02774 13.1264 1.04157C13.1374 1.20697 13.2137 1.36121 13.3384 1.47036Z" fill="black"/>
<path d="M19.1614 7.09551C19.297 6.97683 19.375 6.80523 19.375 6.625C19.375 6.61731 19.3749 6.60963 19.3746 6.60195C19.3693 6.45858 19.3148 6.3214 19.2204 6.21343C19.1017 6.0778 18.9302 6 18.75 6C18.7423 6 18.7346 6.00014 18.7269 6.00043C18.5836 6.00572 18.4464 6.06017 18.3384 6.15464L13.3384 10.5296C13.2028 10.6483 13.125 10.8198 13.125 11C13.125 11.0077 13.1251 11.0154 13.1254 11.0231C13.1307 11.1664 13.1852 11.3036 13.2796 11.4116C13.3983 11.5472 13.5698 11.625 13.75 11.625C13.7577 11.625 13.7654 11.6249 13.7731 11.6246C13.9164 11.6193 14.0536 11.5648 14.1616 11.4704L19.1614 7.09551Z" fill="black"/>
<path d="M5.83826 0.52979L0.838435 4.90464C0.7028 5.02332 0.625 5.19477 0.625 5.375C0.625 5.38269 0.625142 5.39037 0.625425 5.39805C0.630717 5.54142 0.685169 5.6786 0.77964 5.78657C0.89832 5.9222 1.06977 6 1.25 6C1.25769 6 1.26537 5.99986 1.27305 5.99957C1.41642 5.99428 1.5536 5.93983 1.66157 5.84536L6.66139 1.47051C6.79703 1.35183 6.875 1.18023 6.875 1C6.875 0.992314 6.87486 0.984628 6.87457 0.976947C6.86928 0.833582 6.81483 0.696401 6.72036 0.588435C6.60168 0.4528 6.43023 0.375 6.25 0.375C6.24231 0.375 6.23463 0.375142 6.22695 0.375425C6.08358 0.380717 5.94623 0.435319 5.83826 0.52979Z" fill="black"/>
<path d="M6.66157 10.5296L1.66157 6.15464C1.54763 6.05495 1.40139 6 1.25 6C1.23613 6 1.22226 6.00046 1.20843 6.00138C1.04303 6.01241 0.888793 6.08869 0.77964 6.21343C0.679949 6.32737 0.625 6.47361 0.625 6.625C0.625 6.63887 0.625462 6.65274 0.626384 6.66657C0.637411 6.83197 0.713687 6.98621 0.838435 7.09536L5.83843 11.4704C5.95237 11.5701 6.09861 11.625 6.25 11.625C6.26387 11.625 6.27774 11.6245 6.29157 11.6236C6.45697 11.6126 6.61121 11.5363 6.72036 11.4116C6.82005 11.2976 6.875 11.1514 6.875 11C6.875 10.9861 6.87454 10.9723 6.87362 10.9584C6.86259 10.793 6.78631 10.6388 6.66157 10.5296Z" fill="black"/>
</svg>
