<svg width="17" height="14" viewBox="0 0 17 14" fill="none" xmlns="http://www.w3.org/2000/svg">
<path fill-rule="evenodd" clip-rule="evenodd" d="M6.162 4.75154C6.162 4.75154 5.83041 4.99811 5.41725 4.99999L5.41665 4.99999L5.41406 5H0.625C0.279822 5 0 4.72018 0 4.375V1.25C0 1.25 0 0.732233 0.366117 0.366117C0.366117 0.366117 0.732233 0 1.25 0L5.41663 5.28991e-06C5.41663 5.28991e-06 5.83016 0.00170588 6.16379 0.249799L8.49973 1.9998C8.54731 2.03544 8.58956 2.07769 8.6252 2.12527C8.72458 2.25793 8.7672 2.42464 8.74367 2.58872C8.72014 2.7528 8.63239 2.90082 8.49973 3.0002L6.162 4.75154ZM5.41176 3.75C5.41176 3.75 5.41417 3.74991 5.41612 3.74846L7.08259 2.5L5.41433 1.2502C5.41433 1.2502 5.41406 1.25001 5.41149 1.24999L1.25 1.25V3.75H5.41176Z" fill="#1C1C1C"/>
<path d="M1.25 11.875V4.375C1.25 4.02982 0.970178 3.75 0.625 3.75C0.279822 3.75 0 4.02982 0 4.375V11.875C0 12.3928 0.366117 12.7589 0.366117 12.7589C0.732233 13.125 1.25 13.125 1.25 13.125H15C15.5178 13.125 15.8839 12.7589 15.8839 12.7589C16.25 12.3928 16.25 11.875 16.25 11.875V3.125C16.25 2.60723 15.8839 2.24112 15.8839 2.24112C15.5178 1.875 15 1.875 15 1.875H8.125C7.77982 1.875 7.5 2.15482 7.5 2.5C7.5 2.84518 7.77982 3.125 8.125 3.125H15V11.875H1.25Z" fill="#1C1C1C"/>
<path d="M5.41412 4.375H0.625V1.25C0.625 1.08421 0.690918 0.925293 0.808105 0.808029C0.925293 0.690842 1.08429 0.625 1.25 0.625H5.41412C5.54916 0.625534 5.68054 0.669327 5.78903 0.749969L8.125 2.5L5.78903 4.25003C5.68054 4.33067 5.54916 4.37447 5.41412 4.375V4.375Z" fill="black" fill-opacity="0.1"/>
</svg>
