<svg width="20" height="20" viewBox="0 0 20 20" fill="none" xmlns="http://www.w3.org/2000/svg">
<path d="M5.66934 16.9206C3.75151 15.8294 2.63446 13.9266 2.63446 13.9266C2.53376 13.755 2.36904 13.6305 2.17654 13.5804C2.11487 13.5644 2.0514 13.5562 1.98767 13.5562C1.97798 13.5562 1.96829 13.5564 1.95861 13.5568C1.83506 13.5616 1.71461 13.5969 1.60798 13.6595C1.37858 13.7941 1.23767 14.0402 1.23767 14.3062L1.23767 14.3084C1.23806 14.4412 1.27367 14.5714 1.34088 14.6859C2.66103 16.9348 4.92756 18.2244 4.92756 18.2244C7.19409 19.5139 9.80176 19.4999 9.80176 19.4999C12.4094 19.4858 14.6619 18.1718 14.6619 18.1718C16.9144 16.8579 18.2102 14.5949 18.2102 14.5949C19.506 12.3319 19.4991 9.72425 19.4991 9.72425C19.4922 7.11655 18.1845 4.86046 18.1845 4.86046C16.8767 2.60437 14.6174 1.30233 14.6174 1.30233C12.358 0.000295401 9.75026 0 9.75026 0C9.70442 1.78814e-07 9.65877 0.00418612 9.61378 0.0125055C9.25823 0.0782595 9.00021 0.388335 9.00017 0.749915C9.00017 0.761958 9.00046 0.77397 9.00103 0.785942C9.00997 0.97218 9.08795 1.14841 9.21978 1.28027C9.36042 1.42094 9.55117 1.49998 9.75009 1.5H9.75043C11.9568 1.50033 13.8684 2.60197 13.8684 2.60197C15.7802 3.7037 16.8867 5.61269 16.8867 5.61269C17.9933 7.52169 17.9991 9.72821 17.9991 9.72821C18.005 11.9347 16.9085 13.8495 16.9085 13.8495C15.812 15.7644 13.9061 16.8762 13.9061 16.8762C12.0002 17.988 9.79367 17.9999 9.79367 17.9999C7.58718 18.0118 5.66934 16.9206 5.66934 16.9206Z" fill="#1C1C1C"/>
<path fill-rule="evenodd" clip-rule="evenodd" d="M7.12564 8.66481L1.27564 12.0492C1.10347 12.1488 0.898772 12.1759 0.706592 12.1246C0.514412 12.0733 0.350488 11.9477 0.25088 11.7756C0.208394 11.7021 0.178677 11.622 0.162993 11.5386C0.162993 11.5386 -0.00408145 10.6504 7.63344e-05 9.74655C7.63344e-05 9.74655 -0.00190519 6.65086 1.78779 4.12012C1.78779 4.12012 3.57748 1.58939 6.50059 0.558334C6.68818 0.492169 6.89436 0.503231 7.07379 0.589087C7.25322 0.674944 7.39119 0.828562 7.45736 1.01615C7.48563 1.09629 7.50007 1.18065 7.50007 1.26563V8.01562C7.50007 8.28334 7.35737 8.53075 7.12564 8.66481ZM1.50953 10.1809L6.00007 7.58305V2.39679C6.00007 2.39679 4.20758 3.29627 3.01249 4.98621C3.01249 4.98621 1.4984 7.12723 1.50006 9.75345C1.50006 9.75345 1.49907 9.96772 1.50953 10.1809Z" fill="#1C1C1C"/>
<path d="M1.58491 13.6002L1.58434 13.6006C1.4121 13.7 1.28643 13.8639 1.23499 14.056C1.21805 14.1193 1.20947 14.1845 1.20947 14.25C1.20947 14.2579 1.2096 14.2659 1.20985 14.2738C1.21377 14.3974 1.24819 14.5181 1.31003 14.6251C1.44402 14.8571 1.69158 15 1.95947 15C1.97112 15 1.98277 14.9997 1.99441 14.9992C2.11415 14.9936 2.2308 14.9594 2.3346 14.8994L2.33517 14.8991L17.9159 5.89944C18.1478 5.76545 18.2907 5.5179 18.2907 5.25C18.2907 5.23835 18.2905 5.2267 18.2899 5.21506C18.2843 5.09532 18.2501 4.97867 18.1902 4.87487C18.0907 4.70263 17.9268 4.57696 17.7347 4.52552C17.6714 4.50858 17.6062 4.5 17.5407 4.5C17.5328 4.5 17.5249 4.50013 17.5169 4.50038C17.3934 4.5043 17.2727 4.53871 17.1656 4.60056L1.58491 13.6002Z" fill="#1C1C1C"/>
<path d="M10.5001 9.75V0.75C10.5001 0.335786 10.1643 0 9.75012 0C9.33591 0 9.00012 0.335786 9.00012 0.75V9.75C9.00012 10.1642 9.33591 10.5 9.75012 10.5C10.1643 10.5 10.5001 10.1642 10.5001 9.75Z" fill="#1C1C1C"/>
<path d="M0.900055 11.4C0.797791 10.856 0.747528 10.3035 0.750092 9.75C0.748901 7.88864 1.32541 6.07288 2.40015 4.55319C3.47488 3.03342 4.99475 1.8848 6.75009 1.26562V8.01562L0.900055 11.4Z" fill="black" fill-opacity="0.1"/>
</svg>
