<svg width="20" height="20" viewBox="0 0 20 20" fill="none" xmlns="http://www.w3.org/2000/svg">
<path d="M3.36042 2.6895C4.83638 1.42469 6.71394 0.655661 8.64428 0.467285C8.23647 0.938226 7.77381 1.35638 7.3391 1.80144C5.20279 3.94397 3.06026 6.07924 0.922918 8.22073C0.632073 8.5064 0.368139 8.82623 0.0131226 9.0353C0.24911 6.59366 1.47459 4.26069 3.36042 2.6895Z" fill="#273D8B"/>
<path d="M10.351 0.475586C11.2143 0.510777 12.0557 0.7478 12.8672 1.0314C12.5857 1.36468 12.2648 1.66174 11.9585 1.97018C10.1647 3.76493 8.36896 5.55761 6.57731 7.35443C6.31855 7.6018 6.07842 7.90403 5.72858 8.02409C5.39634 8.07274 5.01234 8.09137 4.74944 7.84503C4.20294 7.47345 4.17189 6.5854 4.64697 6.14654C6.26887 4.52671 7.88663 2.90067 9.5106 1.28291C9.78902 1.01277 10.0343 0.702259 10.351 0.475586Z" fill="#273D8B"/>
<path d="M13.752 1.99482C14.4217 1.73606 15.1959 2.31465 15.2166 3.01019C15.2249 3.58463 14.7415 4.16529 14.1371 4.1332C13.5181 4.20565 12.9261 3.63846 13.0151 3.01122C12.9633 2.54546 13.3318 2.13455 13.752 1.99482Z" fill="#273D8B"/>
<path d="M16.6647 3.68213C17.2246 4.18723 17.6211 4.84447 17.9781 5.50172C14.6371 8.85523 11.2846 12.1984 7.93727 15.5467C7.45287 16.1253 6.41577 15.9473 6.14045 15.2497C5.93034 14.8553 6.02763 14.3595 6.32365 14.0376C9.76514 10.5796 13.2294 7.14535 16.6647 3.68213Z" fill="#273D8B"/>
<path d="M11.1312 4.45113C11.4159 4.15304 11.8713 4.01332 12.2656 4.16133C12.8587 4.33314 13.2179 5.08147 12.9405 5.6435C12.7914 5.98816 12.4716 6.21173 12.2232 6.48084C8.95043 9.7619 5.66005 13.0264 2.39762 16.3178C1.90495 15.8883 1.56752 15.319 1.227 14.7694C1.17214 14.6576 1.0469 14.4961 1.1856 14.3937C4.50392 11.0826 7.81396 7.76221 11.1312 4.45113Z" fill="#273D8B"/>
<path d="M16.2164 8.92147C16.9844 8.17521 17.7162 7.39169 18.5028 6.66406C18.7781 7.48485 19.0483 8.33668 19.0452 9.20818C18.7067 9.61184 18.3082 9.96065 17.9449 10.3405C17.6675 10.6189 17.3539 10.9522 16.9275 10.9346C16.442 10.9822 15.9732 10.6448 15.8283 10.1863C15.6088 9.73501 15.8924 9.23716 16.2164 8.92147Z" fill="#273D8B"/>
<path d="M2.90682 8.06262C3.42123 7.92289 4.04846 8.15784 4.24098 8.6795C4.58875 9.3088 4.06709 10.1834 3.35913 10.2217C2.73915 10.3169 2.07051 9.76215 2.14814 9.11732C2.08914 8.63189 2.47107 8.21167 2.90682 8.06262Z" fill="#273D8B"/>
<path d="M0.303812 10.4916C0.593621 10.1997 1.04904 10.1324 1.432 10.2535C2.023 10.4419 2.36353 11.2016 2.06234 11.7564C1.95366 12.0048 1.74354 12.1849 1.5562 12.3733C1.22706 12.6962 0.912412 13.0347 0.56464 13.3379C0.293461 12.5761 0.0823142 11.7874 0.00986173 10.9801C-0.0491352 10.7555 0.170292 10.6292 0.303812 10.4916Z" fill="#273D8B"/>
<path d="M14.3565 10.944C15.0324 10.7256 15.76 11.2348 15.8294 11.9273C15.8863 12.6891 15.0397 13.3473 14.3182 13.0534C13.8815 12.8671 13.5389 12.4148 13.5792 11.9273C13.633 11.4884 13.9508 11.1086 14.3565 10.944Z" fill="#273D8B"/>
<path d="M18.097 11.8371C18.4023 11.5297 18.6942 11.2057 19.0503 10.9563C18.8764 12.8411 18.1104 14.671 16.8901 16.1191C15.3024 18.0577 12.9135 19.308 10.4201 19.5326C12.958 16.946 15.5436 14.4071 18.097 11.8371Z" fill="#273D8B"/>
<path d="M11.2482 13.8883C11.536 13.6006 11.8092 13.2653 12.2015 13.1162C12.5068 13.0769 12.8577 13.0427 13.1186 13.2435C13.5346 13.5095 13.8006 14.0995 13.5647 14.5663C13.4767 14.7971 13.3028 14.9782 13.133 15.1511C11.9572 16.3227 10.7846 17.4965 9.61186 18.6702C9.32412 18.9528 9.05915 19.2612 8.74346 19.5127C7.88024 19.5158 7.04083 19.2478 6.22626 18.9869C6.45707 18.6454 6.76862 18.3711 7.05739 18.0813C8.45469 16.684 9.85302 15.2877 11.2482 13.8883Z" fill="#273D8B"/>
<path d="M4.36827 16.0196C4.833 15.7495 5.51302 15.8209 5.84733 16.266C6.11127 16.5837 6.06573 17.034 5.99845 17.4118C5.79455 17.7595 5.44471 18.0659 5.02034 18.0618C4.2658 18.1363 3.58785 17.2275 3.94805 16.5413C4.03913 16.3353 4.17058 16.1366 4.36827 16.0196Z" fill="#273D8B"/>
</svg>
