<svg width="29" height="29" viewBox="0 0 29 29" fill="none" xmlns="http://www.w3.org/2000/svg">
<path d="M5.02914 3.32572C7.23803 1.43283 10.0479 0.281919 12.9368 0C12.3265 0.704798 11.6341 1.3306 10.9835 1.99667C7.78637 5.20311 4.57993 8.39872 1.38123 11.6036C0.94596 12.0311 0.550963 12.5098 0.0196533 12.8227C0.372827 9.16857 2.20685 5.67711 5.02914 3.32572Z" fill="white"/>
<path d="M15.4911 0.0124512C16.783 0.0651174 18.0423 0.41984 19.2568 0.844268C18.8354 1.34305 18.3552 1.78761 17.8967 2.24922C15.2123 4.9352 12.5248 7.61808 9.84344 10.3072C9.45619 10.6774 9.09682 11.1297 8.57326 11.3094C8.07602 11.3822 7.50134 11.41 7.1079 11.0414C6.29002 10.4853 6.24355 9.15624 6.95454 8.49946C9.38184 6.07527 11.8029 3.64178 14.2333 1.22068C14.65 0.816386 15.0171 0.351684 15.4911 0.0124512Z" fill="white"/>
<path d="M20.5809 2.28633C21.5831 1.89908 22.7418 2.76497 22.7728 3.8059C22.7852 4.6656 22.0618 5.5346 21.1572 5.48658C20.2309 5.59501 19.3448 4.74615 19.478 3.80745C19.4006 3.1104 19.952 2.49544 20.5809 2.28633Z" fill="white"/>
<path d="M24.94 4.81128C25.778 5.56719 26.3712 6.55081 26.9057 7.53443C21.9055 12.5532 16.8882 17.5565 11.8787 22.5675C11.1538 23.4334 9.6017 23.167 9.18966 22.123C8.87521 21.5328 9.02082 20.7908 9.46383 20.3091C14.6143 15.1339 19.7988 9.99426 24.94 4.81128Z" fill="white"/>
<path d="M16.6587 5.96176C17.0847 5.51565 17.7663 5.30653 18.3565 5.52804C19.244 5.78517 19.7815 6.90511 19.3664 7.74622C19.1434 8.26204 18.6647 8.59662 18.2929 8.99936C13.395 13.9097 8.47069 18.7953 3.58822 23.7211C2.85089 23.0783 2.34592 22.2263 1.83629 21.4038C1.7542 21.2365 1.56677 20.9949 1.77433 20.8415C6.74045 15.8862 11.6942 10.917 16.6587 5.96176Z" fill="white"/>
<path d="M24.2691 12.6523C25.4184 11.5355 26.5136 10.3629 27.6908 9.27393C28.1029 10.5023 28.5072 11.7771 28.5025 13.0814C27.996 13.6855 27.3996 14.2075 26.8559 14.776C26.4408 15.1927 25.9714 15.6915 25.3332 15.6651C24.6068 15.7364 23.9051 15.2314 23.6882 14.5452C23.3598 13.8698 23.7842 13.1248 24.2691 12.6523Z" fill="white"/>
<path d="M4.35029 11.367C5.12014 11.1579 6.05884 11.5095 6.34696 12.2902C6.86742 13.232 6.08672 14.5409 5.0272 14.5982C4.09935 14.7407 3.09869 13.9105 3.21487 12.9454C3.12657 12.2189 3.69816 11.59 4.35029 11.367Z" fill="white"/>
<path d="M0.454677 15.0022C0.888399 14.5654 1.56996 14.4647 2.14309 14.646C3.02758 14.9279 3.5372 16.0649 3.08644 16.8951C2.92379 17.2669 2.60935 17.5364 2.32898 17.8183C1.83639 18.3016 1.36549 18.8081 0.845027 19.262C0.439187 18.1219 0.123189 16.9416 0.0147588 15.7334C-0.0735346 15.3972 0.254855 15.2083 0.454677 15.0022Z" fill="white"/>
<path d="M21.4857 15.6796C22.4972 15.3528 23.5861 16.1149 23.6899 17.1512C23.7751 18.2912 22.508 19.2764 21.4283 18.8365C20.7747 18.5577 20.2619 17.8808 20.3223 17.1512C20.4029 16.4944 20.8784 15.9259 21.4857 15.6796Z" fill="white"/>
<path d="M27.0835 17.0155C27.5405 16.5554 27.9773 16.0706 28.5101 15.6973C28.2499 18.518 27.1036 21.2567 25.2774 23.4237C22.9012 26.325 19.3261 28.1962 15.5945 28.5323C19.3927 24.6614 23.2621 20.8617 27.0835 17.0155Z" fill="white"/>
<path d="M16.8338 20.086C17.2645 19.6554 17.6734 19.1535 18.2605 18.9304C18.7174 18.8716 19.2425 18.8205 19.6329 19.121C20.2556 19.5191 20.6537 20.402 20.3005 21.1006C20.1688 21.446 19.9086 21.7171 19.6546 21.9758C17.8949 23.7293 16.1399 25.4858 14.3849 27.2424C13.9542 27.6653 13.5577 28.1269 13.0852 28.5033C11.7934 28.5079 10.5371 28.1068 9.31805 27.7164C9.66348 27.2052 10.1297 26.7947 10.5619 26.361C12.6531 24.2699 14.7458 22.1803 16.8338 20.086Z" fill="white"/>
<path d="M6.53744 23.2753C7.23295 22.871 8.25064 22.9778 8.75097 23.6439C9.14597 24.1195 9.07781 24.7933 8.97713 25.3587C8.67197 25.8791 8.14841 26.3376 7.51332 26.3314C6.38409 26.443 5.36949 25.0829 5.90854 24.056C6.04486 23.7477 6.24158 23.4503 6.53744 23.2753Z" fill="white"/>
</svg>
