<svg width="15" height="15" viewBox="0 0 15 15" fill="none" xmlns="http://www.w3.org/2000/svg">
<path d="M1.25 1.25H5.625C5.97018 1.25 6.25 0.970178 6.25 0.625C6.25 0.279822 5.97018 0 5.625 0H1.25C0.732233 0 0.366117 0.366117 0.366117 0.366117C0 0.732233 0 1.25 0 1.25V13.75C0 14.2678 0.366117 14.6339 0.366117 14.6339C0.732233 15 1.25 15 1.25 15H5.625C5.97018 15 6.25 14.7202 6.25 14.375C6.25 14.0298 5.97018 13.75 5.625 13.75H1.25V1.25Z" fill="#1C1C1C"/>
<path d="M5.625 8.125H14.375C14.7202 8.125 15 7.84518 15 7.5C15 7.15482 14.7202 6.875 14.375 6.875H5.625C5.27982 6.875 5 7.15482 5 7.5C5 7.84518 5.27982 8.125 5.625 8.125Z" fill="#1C1C1C"/>
<path d="M13.4911 7.5L10.652 10.3391L10.6518 10.3393C10.5346 10.4565 10.4688 10.6155 10.4688 10.7812C10.4688 10.7913 10.469 10.8013 10.4695 10.8113C10.4769 10.9665 10.5419 11.1133 10.6518 11.2232C10.769 11.3404 10.928 11.4062 11.0938 11.4062C11.2595 11.4062 11.4185 11.3404 11.5357 11.2232L11.5359 11.223L14.8169 7.94194C14.9342 7.82473 15 7.66576 15 7.5C15 7.33424 14.9342 7.17527 14.8169 7.05806L11.5358 3.77688C11.4185 3.6596 11.2595 3.59375 11.0938 3.59375C10.928 3.59375 10.769 3.6596 10.6518 3.77681C10.5346 3.89402 10.4688 4.05299 10.4688 4.21875C10.4688 4.38451 10.5346 4.54348 10.6518 4.66069L13.4911 7.5Z" fill="black"/>
</svg>
