<svg width="18" height="17" viewBox="0 0 18 17" fill="none" xmlns="http://www.w3.org/2000/svg">
<path d="M11.5877 3.75869C11.5767 3.7581 11.5657 3.75781 11.5547 3.75781C11.5276 3.75781 11.5005 3.75958 11.4736 3.7631C11.1748 3.80219 10.9465 4.04889 10.9306 4.34978C10.93 4.36078 10.9297 4.3718 10.9297 4.38281C10.9297 4.3919 10.9299 4.401 10.9303 4.41008C10.9366 4.55489 10.9931 4.69301 11.09 4.80078C11.2009 4.92402 11.3561 4.99818 11.5217 5.00694C13.5118 5.11227 14.8823 6.55922 14.8823 6.55922C16.2528 8.00617 16.25 9.99913 16.25 9.99913V15H11.25C9.66032 15.0004 8.36237 14.0828 8.36237 14.0828C7.06461 13.1654 6.53473 11.6671 6.53473 11.6671L6.53457 11.6667C6.44628 11.417 6.21018 11.25 5.94531 11.25L5.93765 11.25C5.86926 11.2509 5.80147 11.2629 5.73698 11.2857C5.5807 11.341 5.45277 11.4561 5.38133 11.6056C5.34116 11.6898 5.32031 11.7818 5.32031 11.875L5.32046 11.8886C5.3219 11.955 5.33392 12.0207 5.35606 12.0833C6.01836 13.9566 7.6408 15.1035 7.6408 15.1035C9.26325 16.2505 11.25 16.25 11.25 16.25H16.4062C16.8593 16.25 17.1796 15.9296 17.1796 15.9296C17.5 15.6093 17.5 15.1562 17.5 15.1562V10.0009C17.5017 8.80093 17.0583 7.68589 17.0583 7.68589C16.615 6.57084 15.7898 5.69964 15.7898 5.69964C14.9647 4.82844 13.8753 4.32527 13.8753 4.32527C12.7862 3.82219 11.5882 3.75871 11.5882 3.75871L11.5877 3.75869Z" fill="#1C1C1C"/>
<path fill-rule="evenodd" clip-rule="evenodd" d="M8.64177 0.475753C8.64177 0.475753 7.4932 0 6.25 0H6.24955C6.24955 0 5.00659 8.69483e-05 3.85823 0.475753C3.85823 0.475753 2.70966 0.951506 1.83058 1.83058C1.83058 1.83058 0.951506 2.70966 0.475753 3.85823C0.475753 3.85823 0 5.0068 0 6.25V11.4062C0 11.4062 0 11.8593 0.320353 12.1796C0.320353 12.1796 0.640705 12.5 1.09375 12.5H6.25C6.25 12.5 7.4932 12.5 8.64177 12.0242C8.64177 12.0242 9.79034 11.5485 10.6694 10.6694C10.6694 10.6694 11.5485 9.79034 12.0242 8.64177C12.0242 8.64177 12.5 7.4932 12.5 6.25C12.5 6.25 12.5 5.0068 12.0242 3.85823C12.0242 3.85823 11.5485 2.70966 10.6694 1.83058C10.6694 1.83058 9.79034 0.951506 8.64177 0.475753ZM11.25 6.25C11.25 6.25 11.25 5.25544 10.8694 4.33658C10.8694 4.33658 10.4888 3.41773 9.78553 2.71447C9.78553 2.71447 9.08227 2.0112 8.16342 1.6306C8.16342 1.6306 7.24475 1.25008 6.25041 1.25L6.25 1.25C6.25 1.25 5.25544 1.25 4.33658 1.6306C4.33658 1.6306 3.41773 2.0112 2.71447 2.71447C2.71447 2.71447 2.0112 3.41773 1.6306 4.33658C1.6306 4.33658 1.25 5.25544 1.25 6.25L1.25 11.25H6.25C6.25 11.25 7.24456 11.25 8.16342 10.8694C8.16342 10.8694 9.08227 10.4888 9.78553 9.78553C9.78553 9.78553 10.4888 9.08227 10.8694 8.16342C10.8694 8.16342 11.25 7.24456 11.25 6.25Z" fill="#1C1C1C"/>
<path d="M11.5547 4.38281C11.7689 4.98191 11.8774 5.61374 11.875 6.24999V6.24999C11.875 7.74184 11.2824 9.17258 10.2275 10.2275C9.17258 11.2824 7.74184 11.875 6.24999 11.875H5.94531C6.33311 12.9719 7.05154 13.9216 8.00159 14.5932C8.95164 15.2648 10.0865 15.6253 11.25 15.625H16.4062C16.5306 15.625 16.6498 15.5756 16.7377 15.4877C16.8256 15.3998 16.875 15.2806 16.875 15.1562V9.99999C16.877 8.56027 16.3261 7.17473 15.3361 6.12943C14.346 5.08414 12.9924 4.4589 11.5547 4.38281Z" fill="black" fill-opacity="0.1"/>
</svg>
