<svg width="20" height="20" viewBox="0 0 20 20" fill="none" xmlns="http://www.w3.org/2000/svg">
<path d="M3.25 0C1.458 0 0 1.458 0 3.25V14.2676C0 14.7401 0.261117 15.1683 0.682617 15.3828C0.862617 15.4748 1.05798 15.5186 1.25098 15.5186C1.50998 15.5186 1.76685 15.4383 1.98535 15.2793L6.49316 12H12.75C14.542 12 16 10.542 16 8.75V3.25C16 1.458 14.542 0 12.75 0H3.25ZM17 4.00977V8.75C17 11.095 15.095 13 12.75 13H6.82031L4.59473 14.6152C5.17973 15.4502 6.155 16 7.25 16H13.5049L18.0146 19.2803C18.2346 19.4403 18.49 19.5195 18.75 19.5195C18.94 19.5195 19.1354 19.4749 19.3154 19.3799C19.7404 19.1699 20 18.7395 20 18.2695V7.25C20 5.545 18.675 4.13977 17 4.00977Z" fill="#273D8B"/>
</svg>
