<svg width="20" height="12" viewBox="0 0 20 12" fill="none" xmlns="http://www.w3.org/2000/svg">
<path fill-rule="evenodd" clip-rule="evenodd" d="M6.25 0.375C6.25 0.375 7.8033 0.375 8.90165 1.47335C8.90165 1.47335 10 2.5717 10 4.125C10 4.125 10 5.6783 8.90165 6.77665C8.90165 6.77665 7.8033 7.875 6.25 7.875C6.25 7.875 4.6967 7.875 3.59835 6.77665C3.59835 6.77665 2.5 5.6783 2.5 4.125C2.5 4.125 2.5 2.5717 3.59835 1.47335C3.59835 1.47335 4.6967 0.375 6.25 0.375ZM6.25 1.625C6.25 1.625 5.21447 1.625 4.48223 2.35723C4.48223 2.35723 3.75 3.08947 3.75 4.125C3.75 4.125 3.75 5.16053 4.48223 5.89277C4.48223 5.89277 5.21447 6.625 6.25 6.625C6.25 6.625 7.28553 6.625 8.01777 5.89277C8.01777 5.89277 8.75 5.16053 8.75 4.125C8.75 4.125 8.75 3.08947 8.01777 2.35723C8.01777 2.35723 7.28553 1.625 6.25 1.625Z" fill="black"/>
<path d="M11.875 2.875H19.375C19.7202 2.875 20 2.59518 20 2.25C20 1.90482 19.7202 1.625 19.375 1.625H11.875C11.5298 1.625 11.25 1.90482 11.25 2.25C11.25 2.59518 11.5298 2.875 11.875 2.875Z" fill="black"/>
<path d="M11.875 6.625H19.375C19.7202 6.625 20 6.34518 20 6C20 5.65482 19.7202 5.375 19.375 5.375H11.875C11.5298 5.375 11.25 5.65482 11.25 6C11.25 6.34518 11.5298 6.625 11.875 6.625Z" fill="black"/>
<path d="M13.75 10.375H19.375C19.7202 10.375 20 10.0952 20 9.75C20 9.40482 19.7202 9.125 19.375 9.125H13.75C13.4048 9.125 13.125 9.40482 13.125 9.75C13.125 10.0952 13.4048 10.375 13.75 10.375Z" fill="black"/>
<path d="M8.93263 8.78421C10.1165 9.70318 10.4883 11.1551 10.4883 11.1551C10.5591 11.4316 10.8083 11.625 11.0938 11.625L11.1063 11.6249C11.1544 11.6239 11.2022 11.6174 11.2488 11.6055C11.5253 11.5347 11.7187 11.2855 11.7188 11L11.7186 10.9875C11.7177 10.9394 11.7111 10.8916 11.6992 10.845C11.2213 8.97831 9.69909 7.79677 9.69909 7.79677C8.17692 6.61523 6.25 6.61523 6.25 6.61523C4.32308 6.61523 2.80091 7.79677 2.80091 7.79677C1.27873 8.97831 0.800781 10.845 0.800781 10.845C0.787812 10.8957 0.78125 10.9478 0.78125 11C0.78125 11.0089 0.78144 11.0178 0.781819 11.0267C0.786214 11.1296 0.815991 11.2299 0.8685 11.3186C0.952975 11.4612 1.09065 11.5644 1.25123 11.6055C1.30188 11.6185 1.35396 11.625 1.40625 11.625C1.41514 11.625 1.42403 11.6248 1.43291 11.6245C1.53585 11.6201 1.63611 11.5903 1.72476 11.5378C1.86738 11.4533 1.9706 11.3156 2.01172 11.1551C2.38346 9.70318 3.56737 8.78421 3.56737 8.78421C4.75128 7.86523 6.25 7.86523 6.25 7.86523C7.74872 7.86523 8.93263 8.78421 8.93263 8.78421Z" fill="black"/>
</svg>
