<svg width="15" height="12" viewBox="0 0 15 12" fill="none" xmlns="http://www.w3.org/2000/svg">
<path d="M1.875 10.9375C1.875 11.4552 1.45523 11.875 0.9375 11.875C0.419769 11.875 0 11.4552 0 10.9375C0 10.4198 0.419769 10 0.9375 10C1.45523 10 1.875 10.4198 1.875 10.9375Z" fill="#1C1C1C"/>
<path d="M1.875 5.9375C1.875 6.45523 1.45523 6.875 0.9375 6.875C0.419769 6.875 0 6.45523 0 5.9375C0 5.41977 0.419769 5 0.9375 5C1.45523 5 1.875 5.41977 1.875 5.9375Z" fill="#1C1C1C"/>
<path d="M1.875 0.9375C1.875 1.45523 1.45523 1.875 0.9375 1.875C0.419769 1.875 0 1.45523 0 0.9375C0 0.419769 0.419769 0 0.9375 0C1.45523 0 1.875 0.419769 1.875 0.9375Z" fill="#1C1C1C"/>
<path d="M4.375 11.5625H14.375C14.7202 11.5625 15 11.2827 15 10.9375C15 10.5923 14.7202 10.3125 14.375 10.3125H4.375C4.02982 10.3125 3.75 10.5923 3.75 10.9375C3.75 11.2827 4.02982 11.5625 4.375 11.5625Z" fill="#1C1C1C"/>
<path d="M4.375 6.5625H14.375C14.7202 6.5625 15 6.28268 15 5.9375C15 5.59232 14.7202 5.3125 14.375 5.3125H4.375C4.02982 5.3125 3.75 5.59232 3.75 5.9375C3.75 6.28268 4.02982 6.5625 4.375 6.5625Z" fill="#1C1C1C"/>
<path d="M4.375 1.5625H14.375C14.7202 1.5625 15 1.28268 15 0.9375C15 0.592322 14.7202 0.3125 14.375 0.3125H4.375C4.02982 0.3125 3.75 0.592322 3.75 0.9375C3.75 1.28268 4.02982 1.5625 4.375 1.5625Z" fill="#1C1C1C"/>
</svg>
