<svg width="18" height="18" viewBox="0 0 18 18" fill="none" xmlns="http://www.w3.org/2000/svg">
<path fill-rule="evenodd" clip-rule="evenodd" d="M9 4.62503C9 4.62503 10.8122 4.62503 12.0936 5.90644C12.0936 5.90644 13.375 7.18785 13.375 9.00003C13.375 9.00003 13.375 10.8122 12.0936 12.0936C12.0936 12.0936 10.8122 13.375 9 13.375C9 13.375 7.18782 13.375 5.90641 12.0936C5.90641 12.0936 4.625 10.8122 4.625 9.00003C4.625 9.00003 4.625 7.18785 5.90641 5.90644C5.90641 5.90644 7.18781 4.62503 9 4.62503ZM9 5.87503C9 5.87503 7.70558 5.87503 6.79029 6.79032C6.79029 6.79032 5.875 7.70561 5.875 9.00003C5.875 9.00003 5.875 10.2944 6.79029 11.2097C6.79029 11.2097 7.70558 12.125 9 12.125C9 12.125 10.2944 12.125 11.2097 11.2097C11.2097 11.2097 12.125 10.2944 12.125 9.00003C12.125 9.00003 12.125 7.70561 11.2097 6.79032C11.2097 6.79032 10.2944 5.87503 9 5.87503Z" fill="black"/>
<path fill-rule="evenodd" clip-rule="evenodd" d="M13.6656 1.86474L13.9393 3.78089C13.9393 3.78089 14.0828 3.91893 14.2192 4.0607L16.1352 4.33441C16.3254 4.36158 16.4926 4.47474 16.5885 4.64125C16.5885 4.64125 17.1525 5.62082 17.4471 6.71211C17.4973 6.89792 17.459 7.09648 17.3435 7.25037L16.1795 8.80001C16.1795 8.80001 16.1858 9.02737 16.182 9.20341L17.3435 10.7496C17.4589 10.9033 17.4972 11.1015 17.4473 11.2871C17.4473 11.2871 17.1539 12.3797 16.5881 13.3594C16.4921 13.5256 16.3252 13.6385 16.1352 13.6656L14.2146 13.94C14.2146 13.94 14.06 14.0988 13.9396 14.2167L13.6656 16.1353C13.6384 16.3255 13.5252 16.4926 13.3587 16.5885C13.3587 16.5885 12.3792 17.1525 11.2879 17.4472C11.1021 17.4973 10.9035 17.4591 10.7496 17.3435L9.20769 16.1853C9.20769 16.1853 8.99997 16.1937 8.79226 16.1853L7.25034 17.3435C7.09667 17.4589 6.89845 17.4972 6.71285 17.4474C6.71285 17.4474 5.62024 17.1539 4.64053 16.5881C4.47439 16.4922 4.36151 16.3252 4.33438 16.1353L4.06016 14.2157C4.06016 14.2157 3.92042 14.0796 3.78427 13.9398L1.86471 13.6656C1.6745 13.6384 1.50735 13.5253 1.41147 13.3588C1.41147 13.3588 0.847427 12.3792 0.552825 11.2879C0.502664 11.1021 0.540908 10.9035 0.656496 10.7496L1.82048 9.2C1.82048 9.2 1.81415 8.97265 1.81792 8.7966L0.656496 7.25037C0.541076 7.0967 0.502766 6.89849 0.552618 6.71288C0.552618 6.71288 0.846085 5.62027 1.41187 4.64056C1.50782 4.47442 1.67477 4.36155 1.86471 4.33441L3.78427 4.06019C3.78427 4.06019 3.92041 3.92044 4.06016 3.7843L4.33438 1.86474C4.36155 1.67453 4.47471 1.50738 4.64122 1.4115C4.64122 1.4115 5.62079 0.847457 6.71208 0.552855C6.89789 0.502695 7.09645 0.540938 7.25034 0.656527L8.79226 1.81472C8.79226 1.81472 8.99998 1.8063 9.20769 1.81472L10.7496 0.656527C10.9033 0.541106 11.1015 0.502797 11.2871 0.552649C11.2871 0.552649 12.3797 0.846115 13.3594 1.4119C13.5256 1.50785 13.6384 1.6748 13.6656 1.86474ZM12.7328 4.17433L12.4722 2.34994C12.4722 2.34994 11.8844 2.04135 11.2508 1.84344L9.77377 2.95286C9.65039 3.04554 9.49708 3.08929 9.34336 3.0757C9.34336 3.0757 8.99998 3.04534 8.65659 3.0757C8.50287 3.08929 8.34956 3.04554 8.22618 2.95286L6.74953 1.8437C6.74953 1.8437 6.1159 2.04225 5.5277 2.35037L5.26713 4.17433C5.24717 4.31409 5.18047 4.44297 5.07791 4.53999C5.07791 4.53999 4.80146 4.80149 4.53995 5.07794C4.44294 5.1805 4.31406 5.2472 4.1743 5.26716L2.34991 5.52779C2.34991 5.52779 2.04132 6.11555 1.84341 6.74921L2.95283 8.22621C3.04548 8.34956 3.08924 8.50282 3.07568 8.6565C3.07568 8.6565 3.05588 8.88095 3.07749 9.3709C3.08388 9.51559 3.03981 9.658 2.95283 9.7738L1.84367 11.2505C1.84367 11.2505 2.04222 11.8841 2.35034 12.4723L4.1743 12.7328C4.31406 12.7528 4.44294 12.8195 4.53995 12.9221C4.53995 12.9221 4.80147 13.1985 5.07791 13.46C5.18047 13.557 5.24717 13.6859 5.26713 13.8257L5.52776 15.6501C5.52776 15.6501 6.11553 15.9587 6.74918 16.1566L8.22618 15.0471C8.34956 14.9545 8.50287 14.9107 8.65659 14.9243C8.65659 14.9243 8.99998 14.9547 9.34336 14.9243C9.49708 14.9107 9.65039 14.9545 9.77377 15.0471L11.2504 16.1563C11.2504 16.1563 11.884 15.9578 12.4722 15.6496L12.7328 13.8257C12.7532 13.683 12.8223 13.5517 12.9284 13.4541C12.9284 13.4541 13.1093 13.2876 13.463 12.9189C13.5597 12.8181 13.6874 12.7526 13.8256 12.7328L15.65 12.4722C15.65 12.4722 15.9586 11.8845 16.1565 11.2508L15.0471 9.7738C14.9545 9.65045 14.9107 9.49719 14.9243 9.34351C14.9243 9.34351 14.9441 9.11907 14.9225 8.62911C14.9161 8.48442 14.9601 8.34201 15.0471 8.22621L16.1563 6.74956C16.1563 6.74956 15.9577 6.11592 15.6496 5.52773L13.8256 5.26716C13.6828 5.24676 13.5515 5.17757 13.4538 5.07133C13.4538 5.07133 13.2058 4.80145 12.9281 4.54566C12.8222 4.44808 12.7532 4.31691 12.7328 4.17433Z" fill="black"/>
</svg>
