<svg width="21" height="20" viewBox="0 0 21 20" fill="none" xmlns="http://www.w3.org/2000/svg">
<path d="M10.6715 0.500015C10.5313 0.499139 10.3937 0.53756 10.2743 0.610919C10.1548 0.684278 10.0583 0.789639 9.9957 0.915054L7.41953 6.0674L1.30234 7.0088C1.16542 7.02996 1.03703 7.08863 0.931412 7.1783C0.825796 7.26798 0.747082 7.38515 0.703997 7.51683C0.660913 7.64851 0.655142 7.78955 0.687326 7.92431C0.719509 8.05907 0.788388 8.18229 0.886325 8.28029L5.11777 12.5117L4.17539 18.6358C4.15431 18.7728 4.1716 18.9129 4.22536 19.0407C4.27912 19.1685 4.36724 19.2789 4.47994 19.3596C4.59263 19.4403 4.72549 19.4882 4.86377 19.498C5.00205 19.5078 5.14034 19.4791 5.26328 19.4151L10.6666 16.5957L16.0699 19.4151C16.1929 19.4791 16.3311 19.5078 16.4694 19.498C16.6077 19.4882 16.7406 19.4403 16.8533 19.3596C16.966 19.2789 17.0541 19.1685 17.1078 19.0407C17.1616 18.9129 17.1789 18.7728 17.1578 18.6358L16.2154 12.5117L20.4469 8.28029C20.5448 8.18229 20.6137 8.05907 20.6459 7.92431C20.6781 7.78955 20.6723 7.64851 20.6292 7.51683C20.5861 7.38515 20.5074 7.26798 20.4018 7.1783C20.2962 7.08863 20.1678 7.02996 20.0309 7.0088L13.9137 6.0674L11.3375 0.915054C11.2756 0.791123 11.1807 0.686744 11.0631 0.613486C10.9455 0.540229 10.81 0.500954 10.6715 0.500015Z" fill="white"/>
</svg>
