<svg width="16" height="14" viewBox="0 0 16 14" fill="none" xmlns="http://www.w3.org/2000/svg">
<path d="M15.5 7.0001C15.5 7.16586 15.4342 7.32483 15.3169 7.44205C15.1997 7.55926 15.0408 7.6251 14.875 7.6251H8C7.83424 7.6251 7.67527 7.55926 7.55806 7.44205C7.44085 7.32483 7.375 7.16586 7.375 7.0001C7.375 6.83434 7.44085 6.67537 7.55806 6.55816C7.67527 6.44095 7.83424 6.3751 8 6.3751H14.875C15.0408 6.3751 15.1997 6.44095 15.3169 6.55816C15.4342 6.67537 15.5 6.83434 15.5 7.0001ZM8 2.6251H14.875C15.0408 2.6251 15.1997 2.55925 15.3169 2.44204C15.4342 2.32483 15.5 2.16586 15.5 2.0001C15.5 1.83434 15.4342 1.67537 15.3169 1.55816C15.1997 1.44095 15.0408 1.3751 14.875 1.3751H8C7.83424 1.3751 7.67527 1.44095 7.55806 1.55816C7.44085 1.67537 7.375 1.83434 7.375 2.0001C7.375 2.16586 7.44085 2.32483 7.55806 2.44204C7.67527 2.55925 7.83424 2.6251 8 2.6251ZM14.875 11.3751H8C7.83424 11.3751 7.67527 11.441 7.55806 11.5582C7.44085 11.6754 7.375 11.8343 7.375 12.0001C7.375 12.1659 7.44085 12.3248 7.55806 12.442C7.67527 12.5593 7.83424 12.6251 8 12.6251H14.875C15.0408 12.6251 15.1997 12.5593 15.3169 12.442C15.4342 12.3248 15.5 12.1659 15.5 12.0001C15.5 11.8343 15.4342 11.6754 15.3169 11.5582C15.1997 11.441 15.0408 11.3751 14.875 11.3751ZM4.76563 0.289165L2.47657 2.39854L1.54688 1.53917C1.42397 1.43147 1.26377 1.37619 1.1006 1.38519C0.937429 1.39418 0.784271 1.46672 0.673939 1.58726C0.563607 1.70781 0.504877 1.86678 0.510333 2.03011C0.515789 2.19343 0.584996 2.34812 0.703128 2.46104L2.05469 3.71104C2.16988 3.81652 2.32038 3.87505 2.47657 3.8751C2.63516 3.87549 2.78827 3.81703 2.90625 3.71104L5.60938 1.21104C5.67197 1.1562 5.72297 1.08941 5.7594 1.0146C5.79584 0.93978 5.81696 0.858441 5.82154 0.775352C5.82612 0.692264 5.81406 0.609097 5.78606 0.530731C5.75807 0.452365 5.71471 0.380378 5.65853 0.318993C5.60235 0.257607 5.53447 0.20806 5.45888 0.173256C5.3833 0.138452 5.30152 0.119094 5.21835 0.116315C5.13518 0.113537 5.0523 0.127395 4.97456 0.157077C4.89681 0.186758 4.82578 0.231666 4.76563 0.289165ZM4.76563 5.28917L2.47657 7.39854L1.54688 6.53917C1.48672 6.48167 1.41569 6.43676 1.33795 6.40708C1.26021 6.3774 1.17732 6.36354 1.09415 6.36632C1.01099 6.36909 0.929209 6.38845 0.853622 6.42326C0.778035 6.45806 0.710159 6.50761 0.653975 6.56899C0.597792 6.63038 0.554433 6.70237 0.526441 6.78073C0.49845 6.8591 0.486389 6.94226 0.490967 7.02535C0.495546 7.10844 0.51667 7.18978 0.553102 7.2646C0.589534 7.33941 0.64054 7.4062 0.703128 7.46104L2.05469 8.71104C2.16988 8.81652 2.32038 8.87505 2.47657 8.8751C2.63516 8.87549 2.78827 8.81703 2.90625 8.71104L5.60938 6.21104C5.67197 6.1562 5.72297 6.08941 5.7594 6.0146C5.79584 5.93978 5.81696 5.85844 5.82154 5.77535C5.82612 5.69226 5.81406 5.6091 5.78606 5.53073C5.75807 5.45237 5.71471 5.38038 5.65853 5.31899C5.60235 5.25761 5.53447 5.20806 5.45888 5.17326C5.3833 5.13845 5.30152 5.11909 5.21835 5.11632C5.13518 5.11354 5.0523 5.1274 4.97456 5.15708C4.89681 5.18676 4.82578 5.23167 4.76563 5.28917ZM4.76563 10.2892L2.47657 12.3985L1.54688 11.5392C1.48672 11.4817 1.41569 11.4368 1.33795 11.4071C1.26021 11.3774 1.17732 11.3635 1.09415 11.3663C1.01099 11.3691 0.929209 11.3885 0.853622 11.4233C0.778035 11.4581 0.710159 11.5076 0.653975 11.569C0.597792 11.6304 0.554433 11.7024 0.526441 11.7807C0.49845 11.8591 0.486389 11.9423 0.490967 12.0254C0.495546 12.1084 0.51667 12.1898 0.553102 12.2646C0.589534 12.3394 0.64054 12.4062 0.703128 12.461L2.05469 13.711C2.16988 13.8165 2.32038 13.875 2.47657 13.8751C2.63516 13.8755 2.78827 13.817 2.90625 13.711L5.60938 11.211C5.72751 11.0981 5.79672 10.9434 5.80217 10.7801C5.80763 10.6168 5.7489 10.4578 5.63857 10.3373C5.52823 10.2167 5.37508 10.1442 5.21191 10.1352C5.04874 10.1262 4.88854 10.1815 4.76563 10.2892Z" fill="#1C1C1C"/>
</svg>
