<svg width="16" height="18" viewBox="0 0 16 18" fill="none" xmlns="http://www.w3.org/2000/svg">
<path fill-rule="evenodd" clip-rule="evenodd" d="M8 2.5C8 2.5 9.52546 2.5 10.9195 3.08964C10.9195 3.08964 12.2656 3.65897 13.3033 4.6967C13.3033 4.6967 14.341 5.73443 14.9104 7.08047C14.9104 7.08047 15.5 8.47454 15.5 10C15.5 10 15.5 11.5255 14.9104 12.9195C14.9104 12.9195 14.341 14.2656 13.3033 15.3033C13.3033 15.3033 12.2656 16.341 10.9195 16.9104C10.9195 16.9104 9.52546 17.5 8 17.5C8 17.5 6.47455 17.5 5.08047 16.9104C5.08047 16.9104 3.73442 16.341 2.6967 15.3033C2.6967 15.3033 1.65897 14.2656 1.08964 12.9195C1.08964 12.9195 0.5 11.5255 0.5 10C0.5 10 0.5 8.47454 1.08964 7.08047C1.08964 7.08047 1.65897 5.73443 2.6967 4.6967C2.6967 4.6967 3.73443 3.65897 5.08047 3.08964C5.08047 3.08964 6.47454 2.5 8 2.5ZM8 3.75C8 3.75 6.72803 3.75 5.56741 4.2409C5.56741 4.2409 4.44591 4.71525 3.58058 5.58058C3.58058 5.58058 2.71525 6.44591 2.2409 7.56741C2.2409 7.56741 1.75 8.72803 1.75 10C1.75 10 1.75 11.272 2.2409 12.4326C2.2409 12.4326 2.71525 13.5541 3.58058 14.4194C3.58058 14.4194 4.44591 15.2847 5.56741 15.7591C5.56741 15.7591 6.72803 16.25 8 16.25C8 16.25 9.27197 16.25 10.4326 15.7591C10.4326 15.7591 11.5541 15.2847 12.4194 14.4194C12.4194 14.4194 13.2847 13.5541 13.7591 12.4326C13.7591 12.4326 14.25 11.272 14.25 10C14.25 10 14.25 8.72803 13.7591 7.56741C13.7591 7.56741 13.2847 6.44591 12.4194 5.58058C12.4194 5.58058 11.5541 4.71525 10.4326 4.2409C10.4326 4.2409 9.27197 3.75 8 3.75Z" fill="#1C1C1C"/>
<path d="M11.5355 7.34842C11.6527 7.23121 11.7188 7.07204 11.7188 6.90628C11.7188 6.74052 11.6529 6.58155 11.5357 6.46434C11.4185 6.34713 11.2595 6.28128 11.0938 6.28128C11.075 6.28128 11.0563 6.28212 11.0376 6.28381C10.8918 6.29696 10.7553 6.36085 10.6518 6.46434L7.55833 9.55782C7.44112 9.67503 7.375 9.83427 7.375 10C7.375 10.1658 7.44085 10.3248 7.55806 10.442C7.67527 10.5592 7.83424 10.625 8 10.625C8.16576 10.625 8.32473 10.5592 8.44194 10.442L11.5355 7.34842Z" fill="#1C1C1C"/>
<path d="M6.125 1.25H9.875C10.2202 1.25 10.5 0.970178 10.5 0.625C10.5 0.279822 10.2202 0 9.875 0H6.125C5.77982 0 5.5 0.279822 5.5 0.625C5.5 0.970178 5.77982 1.25 6.125 1.25Z" fill="#1C1C1C"/>
</svg>
