<svg width="18" height="14" viewBox="0 0 18 14" fill="none" xmlns="http://www.w3.org/2000/svg">
<path fill-rule="evenodd" clip-rule="evenodd" d="M9 2.625C9 2.625 10.5533 2.625 11.6516 3.72335C11.6516 3.72335 12.75 4.8217 12.75 6.375C12.75 6.375 12.75 7.9283 11.6516 9.02665C11.6516 9.02665 10.5533 10.125 9 10.125C9 10.125 7.4467 10.125 6.34835 9.02665C6.34835 9.02665 5.25 7.9283 5.25 6.375C5.25 6.375 5.25 4.8217 6.34835 3.72335C6.34835 3.72335 7.4467 2.625 9 2.625ZM9 3.875C9 3.875 7.96447 3.875 7.23223 4.60723C7.23223 4.60723 6.5 5.33947 6.5 6.375C6.5 6.375 6.5 7.41053 7.23223 8.14277C7.23223 8.14277 7.96447 8.875 9 8.875C9 8.875 10.0355 8.875 10.7678 8.14277C10.7678 8.14277 11.5 7.41053 11.5 6.375C11.5 6.375 11.5 5.33947 10.7678 4.60723C10.7678 4.60723 10.0355 3.875 9 3.875Z" fill="black"/>
<path fill-rule="evenodd" clip-rule="evenodd" d="M0.875 1.375C0.875 1.375 0.875 0.857233 1.24112 0.491117C1.24112 0.491117 1.60723 0.125 2.125 0.125H15.875C15.875 0.125 16.3928 0.125 16.7589 0.491117C16.7589 0.491117 17.125 0.857232 17.125 1.375V12.625C17.125 12.625 17.125 13.1428 16.7589 13.5089C16.7589 13.5089 16.3928 13.875 15.875 13.875H2.125C2.125 13.875 1.60723 13.875 1.24112 13.5089C1.24112 13.5089 0.875 13.1428 0.875 12.625V1.375ZM2.125 1.375V12.625H15.875V1.375H2.125Z" fill="black"/>
<path d="M11.8883 11.0397C13.1863 11.9583 13.7153 13.4579 13.7153 13.4579C13.8034 13.7079 14.0397 13.875 14.3047 13.875L14.3119 13.875C14.3803 13.8742 14.4481 13.8622 14.5126 13.8394C14.6689 13.7843 14.7969 13.6693 14.8685 13.5198C14.9088 13.4356 14.9297 13.3434 14.9297 13.25L14.9296 13.2369C14.9282 13.1705 14.9162 13.1048 14.8941 13.0421C14.2329 11.1676 12.6103 10.0193 12.6103 10.0193C10.9878 8.87111 9.00001 8.87111 9.00001 8.87111C7.01225 8.87111 5.38968 10.0193 5.38968 10.0193C3.76711 11.1676 3.10591 13.0421 3.10591 13.0421C3.08235 13.1089 3.07032 13.1792 3.07032 13.25C3.07032 13.2579 3.07047 13.2658 3.07077 13.2737C3.08047 13.5299 3.24565 13.7542 3.48742 13.8394C3.55421 13.863 3.62451 13.875 3.69532 13.875L3.69775 13.875C3.7903 13.8747 3.88161 13.8538 3.96509 13.8138C4.11461 13.7423 4.22959 13.6143 4.28473 13.4579C4.81369 11.9583 6.11174 11.0397 6.11174 11.0397C7.4098 10.1211 9.00001 10.1211 9.00001 10.1211C10.5902 10.1211 11.8883 11.0397 11.8883 11.0397Z" fill="black"/>
</svg>
